# xmcd
# 
# Track frame offsets:
#     150
#     33994
#     58711
#     77600
#     97829
#     118727
#     132444
#     141286
#     165762
#     187843
#     203733
#     221022
#     232195
#     248846
#     265697
#     284297
#     297075
#     311240
#     327527
# 
# Disc length: 4677
# 
# Revision: 0
# Processed by: cddbd v1.5.2PL0 Copyright (c) Steve Scherf et al.
# Submitted via: fre:ac v1.0.27
# 
DISCID=16124313
DTITLE=Stephen King and Owen King - Sleeping Beauties
DYEAR=2017
DGENRE=audiobook
TTITLE0=01
TTITLE1=02
TTITLE2=03
TTITLE3=04
TTITLE4=05
TTITLE5=06
TTITLE6=07
TTITLE7=08
TTITLE8=09
TTITLE9=10
TTITLE10=11
TTITLE11=12
TTITLE12=13
TTITLE13=14
TTITLE14=15
TTITLE15=16
TTITLE16=17
TTITLE17=18
TTITLE18=19
EXTD=
EXTT0=
EXTT1=
EXTT2=
EXTT3=
EXTT4=
EXTT5=
EXTT6=
EXTT7=
EXTT8=
EXTT9=
EXTT10=
EXTT11=
EXTT12=
EXTT13=
EXTT14=
EXTT15=
EXTT16=
EXTT17=
EXTT18=
PLAYORDER=
